# xmcd CD database file
#
# Track frame offsets:
#	150
#	25434
#	46896
#	65250
#	85855
#	101757
#	122816
#	141576
#	164608
#	184462
#
# Disc length: 2720 seconds
#
# Revision: 7
# Processed by: cddbd v1.5.1PL0 Copyright (c) Steve Scherf et al.
# Submitted via: CDex 1.51
#
DISCID=930a9e0a
DTITLE=松任谷由実 - ＮＯ ＳＩＤＥ
DYEAR=1984
DGENRE=J-pop
TTITLE0=ＳＡＬＡＡＭ ＭＯＵＳＳＯＮ ＳＡＬＡＡＭ ＡＦＲＩＱＵＥ
TTITLE1=ノーサイド
TTITLE2=ＤＯＷＮＴＯＷＮ ＢＯＹ
TTITLE3=ＢＬＩＺＺＡＲＤ
TTITLE4=一緒に暮らそう
TTITLE5=破れた恋の繕し方教えます
TTITLE6=午前4時の電話
TTITLE7=木枯らしのダイアリー
TTITLE8=ＳＨＡＮＧＲＩＬＡをめざせ
TTITLE9=〜ノーサイド・夏〜空耳のホイッスル
EXTD=YEAR: 1984
EXTT0=
EXTT1=
EXTT2=
EXTT3=
EXTT4=
EXTT5=
EXTT6=
EXTT7=
EXTT8=
EXTT9=
PLAYORDER=
